<svg width="1920" height="1080" viewBox="0 0 1920 1080" xmlns="http://www.w3.org/2000/svg"><rect width="1920" height="1080" fill="#34cbd5"/><path d="M 0,1080 C 0,1080 0,360 0,360 C 140.17857142857142,415.1428571428571 280.35714285714283,470.2857142857143 393,434 C 505.64285714285717,397.7142857142857 590.75,269.99999999999994 796,271 C 1001.25,272.00000000000006 1326.642857142857,401.7142857142857 1534,438 C 1741.357142857143,474.2857142857143 1830.6785714285716,417.1428571428571 1920,360 C 1920,360 1920,1080 1920,1080 Z" fill="#138486" opacity="0.19999999999999998"/><path d="M 0,1080 C 0,1080 0,720 0,720 C 83.21428571428572,736.7142857142858 166.42857142857144,753.4285714285714 271,771 C 375.57142857142856,788.5714285714286 501.5,807 748,793 C 994.5,779 1361.5714285714284,732.5714285714287 1577,715 C 1792.4285714285716,697.4285714285713 1856.2142857142858,708.7142857142857 1920,720 C 1920,720 1920,1080 1920,1080 Z" fill="#138486" opacity="0.39999999999999997"/></svg>